<?xml version="1.0" encoding="utf-8"?>
<!DOCTYPE svg
  PUBLIC '-//W3C//DTD SVG 1.0//EN'
  'http://www.w3.org/TR/2001/REC-SVG-20010904/DTD/svg10.dtd'>
<svg width="500" height="175" preserveAspectRatio="xMinYMin meet" viewBox="0 0 500 175" xmlns="http://www.w3.org/2000/svg" version="1.0" fill-rule="evenodd" xmlns:xlink="http://www.w3.org/1999/xlink">
	<title>...</title>
	<desc>...</desc>
	<clipPath id="clip">
		<rect x="0" y="0" width="500" height="175"/>
	</clipPath>
	<g id="group" transform="scale(1,-1) translate(0,-175)" style="clip-path: url(#clip)">
		<g transform="">
			<text x="203.035" y="163" style="font-family: Helvetica-Bold; font-size: 10px;fill: rgb(8%,8%,8%); stroke:none;" transform="translate(0,326) scale(1,-1)">the preserved seam</text>
			<text x="99.7025" y="145" style="font-family: Helvetica; font-size: 7.5px;fill: rgb(40%,40%,40%); stroke:none;" transform="translate(0,290) scale(1,-1)">stock runtime</text>
			<text x="357.62" y="145" style="font-family: Helvetica; font-size: 7.5px;fill: rgb(40%,40%,40%); stroke:none;" transform="translate(0,290) scale(1,-1)">v8x runtime</text>
			<rect x="40" y="111" width="165" height="27" rx="4" ry="4" style="stroke: rgb(78%,78%,75%); stroke-linecap: butt; stroke-width: 1.2; fill: rgb(100%,100%,100%); fill-rule: evenodd;"/>
			<text x="101.7663" y="127.2" style="font-family: Helvetica-Bold; font-size: 8.2px;fill: rgb(8%,8%,8%); stroke:none;" transform="translate(0,254) scale(1,-1)">deno_core</text>
			<text x="90.7672" y="118.83" style="font-family: Helvetica; font-size: 6.6px;fill: rgb(40%,40%,40%); stroke:none;" transform="translate(0,237) scale(1,-1)">unchanged consumer</text>
			<rect x="40" y="73" width="165" height="27" rx="4" ry="4" style="stroke: rgb(78%,78%,75%); stroke-linecap: butt; stroke-width: 1.2; fill: rgb(100%,100%,100%); fill-rule: evenodd;"/>
			<text x="87.41220000000001" y="89.2" style="font-family: Helvetica-Bold; font-size: 8.2px;fill: rgb(8%,8%,8%); stroke:none;" transform="translate(0,178) scale(1,-1)">rusty_v8 Rust API</text>
			<text x="77.9269" y="80.83" style="font-family: Helvetica; font-size: 6.6px;fill: rgb(40%,40%,40%); stroke:none;" transform="translate(0,161) scale(1,-1)">unchanged types and lifetimes</text>
			<path d="M 122.5,111 L 122.5,100 Z" style="stroke: rgb(78%,78%,75%); stroke-linecap: butt; stroke-width: 1;"/>
			<path d="M 122.5,73 L 122.5,62 Z" style="stroke: rgb(78%,78%,75%); stroke-linecap: butt; stroke-width: 1;"/>
			<rect x="295" y="111" width="165" height="27" rx="4" ry="4" style="stroke: rgb(78%,78%,75%); stroke-linecap: butt; stroke-width: 1.2; fill: rgb(100%,100%,100%); fill-rule: evenodd;"/>
			<text x="356.7663" y="127.2" style="font-family: Helvetica-Bold; font-size: 8.2px;fill: rgb(8%,8%,8%); stroke:none;" transform="translate(0,254) scale(1,-1)">deno_core</text>
			<text x="345.7672" y="118.83" style="font-family: Helvetica; font-size: 6.6px;fill: rgb(40%,40%,40%); stroke:none;" transform="translate(0,237) scale(1,-1)">unchanged consumer</text>
			<rect x="295" y="73" width="165" height="27" rx="4" ry="4" style="stroke: rgb(78%,78%,75%); stroke-linecap: butt; stroke-width: 1.2; fill: rgb(100%,100%,100%); fill-rule: evenodd;"/>
			<text x="342.4122" y="89.2" style="font-family: Helvetica-Bold; font-size: 8.2px;fill: rgb(8%,8%,8%); stroke:none;" transform="translate(0,178) scale(1,-1)">rusty_v8 Rust API</text>
			<text x="332.9269" y="80.83" style="font-family: Helvetica; font-size: 6.6px;fill: rgb(40%,40%,40%); stroke:none;" transform="translate(0,161) scale(1,-1)">unchanged types and lifetimes</text>
			<path d="M 377.5,111 L 377.5,100 Z" style="stroke: rgb(78%,78%,75%); stroke-linecap: butt; stroke-width: 1;"/>
			<path d="M 377.5,73 L 377.5,62 Z" style="stroke: rgb(78%,78%,75%); stroke-linecap: butt; stroke-width: 1;"/>
			<rect x="40" y="35" width="165" height="27" rx="4" ry="4" style="stroke: rgb(78%,78%,75%); stroke-linecap: butt; stroke-width: 1.2; fill: rgb(100%,100%,100%); fill-rule: evenodd;"/>
			<text x="90.5979" y="51.2" style="font-family: Helvetica-Bold; font-size: 8.2px;fill: rgb(8%,8%,8%); stroke:none;" transform="translate(0,102) scale(1,-1)">v8__* native ABI</text>
			<text x="95.17269999999999" y="42.83" style="font-family: Helvetica; font-size: 6.6px;fill: rgb(40%,40%,40%); stroke:none;" transform="translate(0,85) scale(1,-1)">V8 implementation</text>
			<rect x="295" y="35" width="165" height="27" rx="4" ry="4" style="stroke: rgb(19%,41%,38%); stroke-linecap: butt; stroke-width: 1.2; fill: rgb(100%,100%,100%); fill-rule: evenodd;"/>
			<text x="345.5979" y="51.2" style="font-family: Helvetica-Bold; font-size: 8.2px;fill: rgb(8%,8%,8%); stroke:none;" transform="translate(0,102) scale(1,-1)">v8__* native ABI</text>
			<text x="349.0738" y="42.83" style="font-family: Helvetica; font-size: 6.6px;fill: rgb(40%,40%,40%); stroke:none;" transform="translate(0,85) scale(1,-1)">v8x implementation</text>
			<path d="M 377.5,35 L 335,18 Z" style="stroke: rgb(19%,41%,38%); stroke-linecap: butt; stroke-width: 1.3;"/>
			<path d="M 377.5,35 L 420,18 Z" style="stroke: rgb(19%,41%,38%); stroke-linecap: butt; stroke-width: 1.3;"/>
			<text x="293.5904" y="5" style="font-family: Helvetica-Bold; font-size: 7.2px;fill: rgb(8%,8%,8%); stroke:none;" transform="translate(0,10) scale(1,-1)">JavaScriptCore</text>
			<text x="416.9948" y="5" style="font-family: Helvetica-Bold; font-size: 7.2px;fill: rgb(8%,8%,8%); stroke:none;" transform="translate(0,10) scale(1,-1)">QuickJS-ng</text>
			<path d="M 250,25 L 250,140 Z" style="stroke: rgb(78%,78%,75%); stroke-linecap: butt; stroke-width: 1; stroke-dasharray: 3, 3;"/>
			<text x="213.6901" y="18" style="font-family: Helvetica-Oblique; font-size: 6.6px;fill: rgb(40%,40%,40%); stroke:none;" transform="translate(0,36) scale(1,-1)">compile-time substitution</text>
		</g>
	</g>
</svg>
