<?xml version="1.0" encoding="utf-8"?>
<!DOCTYPE svg
  PUBLIC '-//W3C//DTD SVG 1.0//EN'
  'http://www.w3.org/TR/2001/REC-SVG-20010904/DTD/svg10.dtd'>
<svg width="236" height="155" preserveAspectRatio="xMinYMin meet" viewBox="0 0 236 155" xmlns="http://www.w3.org/2000/svg" version="1.0" fill-rule="evenodd" xmlns:xlink="http://www.w3.org/1999/xlink">
	<title>...</title>
	<desc>...</desc>
	<clipPath id="clip">
		<rect x="0" y="0" width="236" height="155"/>
	</clipPath>
	<g id="group" transform="scale(1,-1) translate(0,-155)" style="clip-path: url(#clip)">
		<g transform="">
			<text x="54.93" y="144" style="font-family: Helvetica-Bold; font-size: 8.5px;fill: rgb(8%,8%,8%); stroke:none;" transform="translate(0,288) scale(1,-1)">how v8x closes a semantic gap</text>
			<rect x="5" y="112" width="226" height="25" rx="3" ry="3" style="stroke: rgb(78%,78%,75%); stroke-linecap: butt; stroke-width: 1; fill: rgb(100%,100%,100%); fill-rule: evenodd;"/>
			<text x="18" y="120" style="font-family: Helvetica-Bold; font-size: 7.5px;fill: rgb(19%,41%,38%); stroke:none;" transform="translate(0,240) scale(1,-1)">1</text>
			<text x="37" y="126" style="font-family: Helvetica-Bold; font-size: 7.3px;fill: rgb(8%,8%,8%); stroke:none;" transform="translate(0,252) scale(1,-1)">forward</text>
			<text x="37" y="117" style="font-family: Helvetica; font-size: 6.2px;fill: rgb(40%,40%,40%); stroke:none;" transform="translate(0,234) scale(1,-1)">equivalent public API</text>
			<rect x="5" y="81" width="226" height="25" rx="3" ry="3" style="stroke: rgb(78%,78%,75%); stroke-linecap: butt; stroke-width: 1; fill: rgb(100%,100%,100%); fill-rule: evenodd;"/>
			<text x="18" y="89" style="font-family: Helvetica-Bold; font-size: 7.5px;fill: rgb(19%,41%,38%); stroke:none;" transform="translate(0,178) scale(1,-1)">2</text>
			<text x="37" y="95" style="font-family: Helvetica-Bold; font-size: 7.3px;fill: rgb(8%,8%,8%); stroke:none;" transform="translate(0,190) scale(1,-1)">adapter state</text>
			<text x="37" y="86" style="font-family: Helvetica; font-size: 6.2px;fill: rgb(40%,40%,40%); stroke:none;" transform="translate(0,172) scale(1,-1)">handles, contexts, metadata</text>
			<rect x="5" y="50" width="226" height="25" rx="3" ry="3" style="stroke: rgb(78%,78%,75%); stroke-linecap: butt; stroke-width: 1; fill: rgb(100%,100%,100%); fill-rule: evenodd;"/>
			<text x="18" y="58" style="font-family: Helvetica-Bold; font-size: 7.5px;fill: rgb(19%,41%,38%); stroke:none;" transform="translate(0,116) scale(1,-1)">3</text>
			<text x="37" y="64" style="font-family: Helvetica-Bold; font-size: 7.3px;fill: rgb(8%,8%,8%); stroke:none;" transform="translate(0,128) scale(1,-1)">normalize</text>
			<text x="37" y="55" style="font-family: Helvetica; font-size: 6.2px;fill: rgb(40%,40%,40%); stroke:none;" transform="translate(0,110) scale(1,-1)">source or observable result</text>
			<rect x="5" y="19" width="226" height="25" rx="3" ry="3" style="stroke: rgb(19%,41%,38%); stroke-linecap: butt; stroke-width: 1; fill: rgb(94%,94%,93%); fill-rule: evenodd;"/>
			<text x="18" y="27" style="font-family: Helvetica-Bold; font-size: 7.5px;fill: rgb(19%,41%,38%); stroke:none;" transform="translate(0,54) scale(1,-1)">4</text>
			<text x="37" y="33" style="font-family: Helvetica-Bold; font-size: 7.3px;fill: rgb(8%,8%,8%); stroke:none;" transform="translate(0,66) scale(1,-1)">patch engine</text>
			<text x="37" y="24" style="font-family: Helvetica; font-size: 6.2px;fill: rgb(40%,40%,40%); stroke:none;" transform="translate(0,48) scale(1,-1)">required state is otherwise hidden</text>
		</g>
	</g>
</svg>
